inDegrees=yes
name=ik_S56_A02_T02
DataType=double
version=3
OpenSimVersion=4.3-2021-08-27-4bc7ad9
endheader
time	pelvis_tilt	pelvis_list	pelvis_rotation	pelvis_tx	pelvis_ty	pelvis_tz	hip_flexion_r	hip_adduction_r	hip_rotation_r	knee_angle_r	knee_angle_r_beta	ankle_angle_r	subtalar_angle_r	mtp_angle_r	hip_flexion_l	hip_adduction_l	hip_rotation_l	knee_angle_l	knee_angle_l_beta	ankle_angle_l	subtalar_angle_l	mtp_angle_l	lumbar_extension	lumbar_bending	lumbar_rotation	arm_flex_r	arm_add_r	arm_rot_r	elbow_flex_r	pro_sup_r	wrist_flex_r	wrist_dev_r	arm_flex_l	arm_add_l	arm_rot_l	elbow_flex_l	pro_sup_l	wrist_flex_l	wrist_dev_l
9.959999999999877	1.791847378043329	2.661229418148168	-88.01456043014942	0	0.9399999999999999	0	11.56593805650623	2.641629098686764	-4.95620242521649	3.670777649343322	0.06406715608965882	0	0	0	1.411222987252047	-5.078721550536732	-6.95160564654415	39.26670189142937	0.6853332344045274	0	0	0	0	0	0	22.54946376369257	-22.54946376369257	3.483318645109553	64.78702073968049	86.51668155326169	0	0	22.54946376369257	-22.54946376369257	3.483318645109553	64.78702073968049	86.51668155297652	0	0
9.979999999999876	1.836548932469587	2.756255564344275	-87.7594821691102	0	0.9399999999999999	0	11.70606261675757	2.496856740423648	-5.114230526519653	2.699335349328665	0.04711228946125651	0	0	0	1.553036041550125	-5.112635391620659	-6.531855418431435	42.01335781647601	0.733271423716002	0	0	0	0	0	0	22.55960548907099	-22.55960548907099	3.484643652010361	64.80546917522744	86.51535654643352	0	0	22.55960548907099	-22.55960548907099	3.484643652010361	64.80546917522744	86.51535654614887	0	0
9.999999999999876	1.840467379278769	2.912378252941598	-87.51762896581359	0	0.9399999999999999	0	12.31061163190141	2.15067413378398	-5.097749776985163	2.10262169877763	0.03669767156754607	0	0	0	-0.1320244557180116	-4.09245209899447	-5.351018850413568	41.63029880556647	0.7265857827461976	0	0	0	0	0	0	22.56848289514347	-22.56848289514347	3.485817563248956	64.82184177547428	86.51418263525953	0	0	22.56848289514347	-22.56848289514347	3.485817563248956	64.82184177547428	86.51418263497504	0	0
10.01999999999988	1.835654135203449	3.013176940931587	-87.43388597922394	0	0.9399999999999999	0	12.93607607793407	1.94870660426824	-5.132896792350436	2.034867211483205	0.0355151326812577	0	0	0	-0.7218967152679142	-3.539761360191404	-4.637455497610732	41.52427267045475	0.7247352775953336	0	0	0	0	0	0	22.57246467361034	-22.57246467361034	3.486342740751007	64.82916325220462	86.51365745778634	0	0	22.57246467361034	-22.57246467361034	3.486342740751007	64.82916325220462	86.51365745750192	0	0
10.03999999999987	1.772564544688102	3.263126761144127	-87.32985092489332	0	0.9399999999999999	0	13.76751211396239	1.822681933075767	-5.023044218700509	0.8892481151067212	0.01552030747576581	0	0	0	-0.4775046458030933	-3.495457692626857	-4.416425330915243	41.39069183466843	0.7224038521932965	0	0	0	0	0	0	22.5810650001388	-22.5810650001388	3.48747756984604	64.84498447216625	86.51252262875369	0	0	22.5810650001388	-22.5810650001388	3.48747756984604	64.84498447216625	86.51252262846948	0	0
10.05999999999987	1.691339183016499	3.500810453092549	-87.25662223065316	0	0.9399999999999999	0	14.5558369646815	1.741158127381039	-5.023277634915497	0.6685957150912963	0.01166919659306906	0	0	0	-0.8876625566049069	-2.976193207732152	-4.017016154904294	39.7593139548278	0.693930936845873	0	0	0	0	0	0	22.58954912912671	-22.58954912912671	3.488596266884315	64.86057827706621	86.5114039317769	0	0	22.58954912912671	-22.58954912912671	3.488596266884315	64.86057827706621	86.51140393149289	0	0
10.07999999999987	1.540715886683708	3.744276590380422	-87.24499618527069	0	0.9399999999999999	0	15.33669650290068	1.685160842355698	-4.966553877554707	-0.3554191372113855	-0.006203234168936173	0	0	0	-0.6275533831034411	-3.046123569844098	-4.016814597489446	39.08705950231126	0.6821978832382677	0	0	0	0	0	0	22.59796633429932	-22.59796633429932	3.489706298298789	64.87605075010846	86.51029390042343	0	0	22.59796633429932	-22.59796633429932	3.489706298298789	64.87605075010846	86.51029390013967	0	0
10.09999999999987	1.308358178560571	4.187096094738098	-87.24265975379207	0	0.9399999999999999	0	16.61773734864481	1.592566527956939	-5.267596162847442	-1.180027131355499	-0.02059535870501708	0	0	0	-1.249049345782388	-2.009370603835816	-3.959451973927894	36.09824924034137	0.6300333034494987	0	0	0	0	0	0	22.60657632727452	-22.60657632727452	3.490840883881304	64.89186273746665	86.50915931490329	0	0	22.60657632727452	-22.60657632727452	3.490840883881304	64.89186273746665	86.50915931461971	0	0
